#!OML:ASF H:\Martial Arts Walks\Project 1\Capture day 1\Session 1\male.ASF
:FULLY-SPECIFIED
:DEGREES
4877
root -2.26514 14.1825 -35.3626 -707.854 -15.7602 -365.12
lowerback 17.5842 4.18626 0.829319
upperback -2.42038 5.73272 -0.289946
thorax -12.4682 2.59816 -2.38626
lowerneck -0.737297 0.0742028 -4.11674
upperneck -0.684248 0.136391 2.90266
head -0.0923457 0.0763812 1.59277
rclavicle -4.22417e-015 -5.56597e-015
rhumerus 1.265 59.0882 -66.0981
rradius 102.15
rwrist -3.87663
rhand -10.7888 -384.929
rfingers 7.12502
rthumb 15.2239 1745.65
lclavicle -4.22417e-015 -5.56597e-015
lhumerus -168.176 186.703 -90.4267
lradius 83.6347
lwrist 6.00849
lhand -29.6403 739.768
lfingers 7.12502
lthumb -2.97007 1489.73
rfemur -37.5568 3.56235 32.3668
rtibia 81.3059
rfoot -30.6641 -19.677
rtoes 28.339
lfemur -68.1087 4.00621 -4.77837
ltibia 40.6929
lfoot -1.41627 8.30594
ltoes -3.97218
4878
root -2.33255 14.2516 -35.4689 -707.849 -14.1529 -364.907
lowerback 17.6007 4.11625 0.783635
upperback -2.46797 5.6384 -0.22865
thorax -12.5471 2.55788 -2.27181
lowerneck -0.611393 -0.303644 -4.33971
upperneck -0.718581 -0.371089 2.94467
head -0.10503 -0.177628 1.6452
rclavicle 1.76421e-014 -1.19271e-014
rhumerus 2.47025 59.0552 -64.7436
rradius 101.813
rwrist -3.02496
rhand -11.2975 -384.69
rfingers 7.12502
rthumb 14.7339 1745.85
lclavicle 1.76421e-014 -1.19271e-014
lhumerus -168.831 187.338 -90.0566
lradius 83.6321
lwrist 5.79373
lhand -29.2073 739.295
lfingers 7.12502
lthumb -2.55189 1489.26
rfemur -37.4044 4.57797 32.3235
rtibia 80.4637
rfoot -30.4049 -19.4812
rtoes 27.5544
lfemur -67.7741 3.17212 -5.1993
ltibia 39.4202
lfoot -2.81883 9.30802
ltoes -4.27527
4879
root -2.39116 14.3171 -35.56 -707.925 -12.7119 -364.805
lowerback 17.607 4.04887 0.961443
upperback -2.42927 5.59071 -0.196543
thorax -12.4936 2.52601 -2.32061
lowerneck -0.704206 -0.659012 -4.55681
upperneck -0.683428 -0.840304 3.0345
head -0.0591951 -0.411416 1.71143
rclavicle 1.72446e-014 3.97569e-016
rhumerus 3.69885 58.9841 -63.3172
rradius 101.611
rwrist -1.99576
rhand -11.4655 -384.579
rfingers 7.12502
rthumb 14.5721 1745.95
lclavicle 1.72446e-014 3.97569e-016
lhumerus -169.439 187.908 -89.7706
lradius 83.6442
lwrist 5.18747
lhand -28.9024 738.655
lfingers 7.12502
lthumb -2.25746 1488.62
rfemur -37.0924 5.62725 32.2877
rtibia 79.6057
rfoot -30.017 -19.5428
rtoes 26.1259
lfemur -67.3805 2.37591 -5.37828
ltibia 38.6324
lfoot -3.20705 10.3907
ltoes -3.24357
4880
root -2.44953 14.3745 -35.6595 -707.95 -11.1195 -364.569
lowerback 17.6409 3.89692 1.01103
upperback -2.49451 5.40521 -0.164293
thorax -12.5934 2.43449 -2.26821
lowerneck -0.510764 -0.971537 -4.73085
upperneck -0.758346 -1.26402 3.0916
head -0.0967304 -0.623892 1.76096
rclavicle 3.89121e-014 -4.77083e-015
rhumerus 4.85626 59.064 -61.9543
rradius 101.409
rwrist -0.954054
rhand -11.1754 -383.914
rfingers 7.12502
rthumb 14.8515 1746.64
lclavicle 3.89121e-014 -4.77083e-015
lhumerus -170.197 188.357 -89.5053
lradius 83.6731
lwrist 4.38768
lhand -28.5621 738.229
lfingers 7.12502
lthumb -1.92875 1488.2
rfemur -36.9752 6.33879 32.1042
rtibia 78.8324
rfoot -29.8483 -19.2531
rtoes 25.1507
lfemur -67.3774 1.62213 -5.91696
ltibia 38.376
lfoot -2.5653 10.8508
ltoes -5.00877
4881
root -2.50536 14.4191 -35.7573 -707.958 -9.57133 -364.399
lowerback 17.4175 3.77866 1.02723
upperback -2.3639 5.2604 -0.0413569
thorax -12.3284 2.38002 -2.07749
lowerneck -0.579371 -1.2915 -4.99444
upperneck -0.933621 -1.68441 3.16656
head -0.119343 -0.831907 1.83143
rclavicle -2.2239e-014 1.2424e-014
rhumerus 6.7334 58.9973 -59.8701
rradius 101.161
rwrist -0.0845775
rhand -11.9008 -384.263
rfingers 7.12502
rthumb 14.1526 1746.24
lclavicle -2.2239e-014 1.2424e-014
lhumerus -170.652 188.754 -89.1919
lradius 83.7619
lwrist 3.76573
lhand -28.1291 738.399
lfingers 7.12502
lthumb -1.51059 1488.37
rfemur -36.8959 7.16822 31.9978
rtibia 78.1321
rfoot -29.8016 -19.039
rtoes 24.1115
lfemur -67.4906 1.13217 -6.66579
ltibia 38.7876
lfoot -2.13945 11.2125
ltoes -4.3526
4882
root -2.55886 14.4672 -35.8548 -707.976 -8.06712 -364.239
lowerback 17.4143 3.63398 1.20192
upperback -2.40983 5.10859 -0.0269187
thorax -12.3695 2.29645 -2.12002
lowerneck -0.346192 -1.60965 -5.09752
upperneck -1.09521 -2.11776 3.24784
head -0.188568 -1.04908 1.87808
rclavicle -3.74212e-014 -7.95139e-015
rhumerus 7.81387 59.0145 -58.5182
rradius 101.065
rwrist 0.893533
rhand -11.7709 -383.895
rfingers 7.12502
rthumb 14.2778 1746.62
lclavicle -3.74212e-014 -7.95139e-015
lhumerus -171.467 189.295 -88.9962
lradius 83.983
lwrist 3.74823
lhand -28.3505 738.822
lfingers 7.12502
lthumb -1.72444 1488.79
rfemur -36.785 7.78062 31.8662
rtibia 77.4604
rfoot -29.7517 -18.993
rtoes 23.074
lfemur -67.7197 0.870871 -7.65795
ltibia 39.7818
lfoot -2.25636 10.9421
ltoes -4.03716
4883
root -2.60733 14.5001 -35.95 -708.046 -6.61634 -364.058
lowerback 17.4997 3.53383 1.08992
upperback -2.43737 4.97673 0.169757
thorax -12.4848 2.24826 -1.81272
lowerneck -0.288892 -1.88929 -5.37058
upperneck -1.1786 -2.49253 3.28171
head -0.204028 -1.23536 1.93821
rclavicle -6.09275e-014 -2.13694e-014
rhumerus 9.45436 59.0998 -56.4954
rradius 100.853
rwrist 1.57055
rhand -11.8789 -383.71
rfingers 7.12502
rthumb 14.1737 1746.79
lclavicle -6.09275e-014 -2.13694e-014
lhumerus -172.3 189.662 -88.6006
lradius 84.282
lwrist 4.08266
lhand -27.4202 738.861
lfingers 7.12502
lthumb -0.825914 1488.84
rfemur -36.7131 8.37436 31.7128
rtibia 76.8673
rfoot -29.6428 -18.9607
rtoes 21.6721
lfemur -68.0257 0.566875 -8.56818
ltibia 41.322
lfoot -2.67155 9.98494
ltoes -4.5326
4884
root -2.65545 14.5307 -36.0445 -708.075 -5.25942 -363.975
lowerback 17.5899 3.45596 1.09705
upperback -2.51377 4.89843 0.334065
thorax -12.6431 2.21442 -1.62405
lowerneck -0.197555 -2.17581 -5.58686
upperneck -1.20299 -2.87902 3.35698
head -0.205348 -1.42851 2.0017
rclavicle 1.72321e-014 3.60297e-016
rhumerus 10.5293 59.1817 -54.9572
rradius 100.776
rwrist 2.46246
rhand -11.964 -383.231
rfingers 7.12502
rthumb 14.0917 1747.27
lclavicle 1.72321e-014 3.60297e-016
lhumerus -173.181 190.212 -88.2908
lradius 84.7149
lwrist 5.52683
lhand -27.1815 739.03
lfingers 7.12502
lthumb -0.595401 1489.01
rfemur -36.6872 9.01456 31.6367
rtibia 76.2983
rfoot -29.4665 -19.0013
rtoes 20.8914
lfemur -68.4786 0.377448 -9.35659
ltibia 43.2824
lfoot -3.06677 8.63631
ltoes -5.57087
4885
root -2.69885 14.5625 -36.1388 -708.125 -3.8918 -363.884
lowerback 17.4448 3.33289 1.2299
upperback -2.45556 4.77361 0.447251
thorax -12.4933 2.15633 -1.52669
lowerneck 0.0142588 -2.43743 -5.79147
upperneck -1.4685 -3.23599 3.52787
head -0.301518 -1.60622 2.09912
rclavicle 3.06253e-014 7.95139e-015
rhumerus 12.1086 59.1495 -53.054
rradius 100.611
rwrist 3.23699
rhand -11.7273 -382.656
rfingers 7.12502
rthumb 14.3198 1747.86
lclavicle 3.06253e-014 7.95139e-015
lhumerus -173.948 190.867 -88.1614
lradius 85.1461
lwrist 7.3521
lhand -27.8062 738.643
lfingers 7.12502
lthumb -1.19875 1488.62
rfemur -36.6849 9.43929 31.5442
rtibia 75.7813
rfoot -29.3068 -19.0047
rtoes 20.4802
lfemur -68.9851 0.148681 -10.112
ltibia 45.5705
lfoot -3.15997 6.91331
ltoes -6.38797
4886
root -2.73959 14.5842 -36.2292 -708.178 -2.62959 -363.899
lowerback 17.5096 3.26777 1.35568
upperback -2.52538 4.73904 0.617918
thorax -12.6182 2.13574 -1.40677
lowerneck 0.187607 -2.71691 -5.96057
upperneck -1.52831 -3.61824 3.61025
head -0.326548 -1.79778 2.15912
rclavicle -3.8763e-015 4.57205e-015
rhumerus 13.1665 59.2883 -51.5169
rradius 100.543
rwrist 3.98707
rhand -12.1369 -382.739
rfingers 7.12502
rthumb 13.9251 1747.75
lclavicle -3.8763e-015 4.57205e-015
lhumerus -174.846 191.497 -87.8642
lradius 85.6446
lwrist 9.171
lhand -27.8805 738.759
lfingers 7.12502
lthumb -1.27048 1488.74
rfemur -36.7275 9.96316 31.594
rtibia 75.3235
rfoot -29.2741 -19.2123
rtoes 19.4949
lfemur -69.5115 -0.0228803 -10.6733
ltibia 48.1474
lfoot -3.28816 5.30521
ltoes -6.95711
4887
root -2.77587 14.6087 -36.3168 -708.264 -1.49716 -363.828
lowerback 17.1563 3.21028 1.51
upperback -2.29395 4.69193 0.706656
thorax -12.142 2.11995 -1.35047
lowerneck 0.0902614 -3.01918 -6.11196
upperneck -1.74853 -4.01316 3.72307
head -0.353606 -1.99242 2.2229
rclavicle -3.45388e-014 -1.51076e-014
rhumerus 15.1358 59.245 -49.2996
rradius 100.455
rwrist 4.25367
rhand -12.9377 -383.109
rfingers 7.12502
rthumb 13.1533 1747.33
lclavicle -3.45388e-014 -1.51076e-014
lhumerus -175.225 192.086 -87.7219
lradius 86.1636
lwrist 10.6625
lhand -27.776 739.09
lfingers 7.12502
lthumb -1.16958 1489.07
rfemur -36.7555 10.4589 31.4949
rtibia 74.9192
rfoot -29.6258 -18.8388
rtoes 20.3726
lfemur -69.9073 -0.194746 -11.2642
ltibia 50.9266
lfoot -3.40398 3.95512
ltoes -7.39
4888
root -2.81014 14.6244 -36.4073 -708.221 -0.431018 -363.846
lowerback 17.1667 3.19696 1.64934
upperback -2.41014 4.72142 0.812373
thorax -12.2787 2.12528 -1.32553
lowerneck 0.330165 -3.28518 -6.28884
upperneck -1.8537 -4.38052 3.89409
head -0.401041 -2.17719 2.31629
rclavicle -7.30534e-015 -3.97569e-016
rhumerus 16.3003 59.28 -47.8149
rradius 100.292
rwrist 4.66466
rhand -13.2144 -383.198
rfingers 7.12502
rthumb 12.8865 1747.22
lclavicle -7.30534e-015 -3.97569e-016
lhumerus -176.198 192.774 -87.5347
lradius 86.6795
lwrist 11.5053
lhand -27.6987 739.387
lfingers 7.12502
lthumb -1.09489 1489.36
rfemur -37.0681 10.7615 31.6092
rtibia 74.5525
rfoot -28.6233 -19.7966
rtoes 18.9294
lfemur -70.4335 -0.332338 -11.6582
ltibia 53.8672
lfoot -3.5581 2.93405
ltoes -7.62164
4889
root -2.84569 14.6405 -36.4933 -708.262 0.606123 -363.774
lowerback 17.1442 3.18079 1.7004
upperback -2.44789 4.72027 0.881614
thorax -12.311 2.12357 -1.27773
lowerneck 0.489108 -3.56035 -6.44349
upperneck -1.95504 -4.75591 4.03903
head -0.432839 -2.36542 2.39584
rclavicle -2.17172e-014 -2.44505e-014
rhumerus 17.303 59.3522 -46.5196
rradius 100.184
rwrist 5.08865
rhand -13.6016 -383.323
rfingers 7.12502
rthumb 12.5132 1747.07
lclavicle -2.17172e-014 -2.44505e-014
lhumerus -177.036 193.427 -87.4045
lradius 87.1124
lwrist 11.7033
lhand -27.5007 739.556
lfingers 7.12502
lthumb -0.903638 1489.53
rfemur -37.2217 10.9526 31.661
rtibia 74.2382
rfoot -28.8974 -19.8308
rtoes 19.5863
lfemur -70.7641 -0.532755 -12.0788
ltibia 56.8799
lfoot -4.00171 2.24972
ltoes -7.85633
4890
root -2.87803 14.6544 -36.5771 -708.244 1.6199 -363.567
lowerback 16.999 3.15587 1.61848
upperback -2.43286 4.67046 0.921184
thorax -12.22 2.11066 -1.16525
lowerneck 0.477414 -3.83122 -6.63071
upperneck -2.01075 -5.11616 4.17692
head -0.419911 -2.54481 2.47425
rclavicle 2.8625e-014 4.77083e-015
rhumerus 18.426 59.3494 -45.1434
rradius 100.096
rwrist 5.47606
rhand -13.9441 -383.562
rfingers 7.12502
rthumb 12.183 1746.81
lclavicle 2.8625e-014 4.77083e-015
lhumerus -177.742 194.034 -87.2988
lradius 87.4824
lwrist 11.3398
lhand -27.1423 739.742
lfingers 7.12502
lthumb -0.557495 1489.72
rfemur -37.4814 10.8754 31.6497
rtibia 73.9668
rfoot -28.9542 -20.1295
rtoes 20.3665
lfemur -71.0664 -0.839659 -12.5402
ltibia 59.8902
lfoot -4.47567 1.97268
ltoes -7.80791
